/* XPM */
static char *caf5d067a8034abce65e68a50132e319[] = {
/* columns rows colors chars-per-pixel */
"32 32 156 2 ",
"   c None",
".  c #E67E3A",
"X  c #E4803A",
"o  c #EC823C",
"O  c #F18B3C",
"+  c #EE923B",
"@  c #F19B38",
"#  c #F6A43E",
"$  c #FBA23C",
"%  c #F28143",
"&  c #F68245",
"*  c #F78245",
"=  c #F28544",
"-  c #FA8545",
";  c #FA8F47",
":  c #FC8D44",
">  c #FD8F44",
",  c #FE8E45",
"<  c #FE8F45",
"1  c #FA8649",
"2  c #FD8C48",
"3  c #F79146",
"4  c #FD9440",
"5  c #F99446",
"6  c #FA9F42",
"7  c #F89846",
"8  c #FC9845",
"9  c #FB9C44",
"0  c #F9904A",
"q  c #FF924B",
"w  c #FF944B",
"e  c #FD974B",
"r  c #FD964C",
"t  c #FB9948",
"y  c #FC9A4B",
"u  c #FF9C49",
"i  c #FF984F",
"p  c #FE9C4E",
"a  c #FE8D50",
"s  c #FF8957",
"d  c #FF8A57",
"f  c #FF8B57",
"g  c #FF8C56",
"h  c #FF8D56",
"j  c #FF8C57",
"k  c #FF8E56",
"l  c #FF8F56",
"z  c #FF8858",
"x  c #FF9153",
"c  c #FF9353",
"v  c #FF9452",
"b  c #FF9453",
"n  c #FF9653",
"m  c #FF9753",
"M  c #FF9055",
"N  c #FF9155",
"B  c #FF9354",
"V  c #FF9255",
"C  c #FF9355",
"Z  c #FF9056",
"A  c #FF9454",
"S  c #FF9554",
"D  c #FF9455",
"F  c #FF9654",
"G  c #FF9754",
"H  c #FF9850",
"J  c #FF9A50",
"K  c #FF9A51",
"L  c #FF9853",
"P  c #FF9953",
"I  c #FF9A52",
"U  c #FF9B52",
"Y  c #FF9A53",
"T  c #FF9B53",
"R  c #FF9F51",
"E  c #FF9C52",
"W  c #FF9D52",
"Q  c #FF9C53",
"!  c #FF9E52",
"~  c #FF9F52",
"^  c #FFAB43",
"/  c #FEA947",
"(  c #F8AE44",
")  c #FFA74B",
"_  c #FFA14E",
"`  c #FFA04F",
"'  c #FFA64F",
"]  c #FFA74F",
"[  c #FFAE49",
"{  c #FFAB4D",
"}  c #FFA84F",
"|  c #FFA94F",
" . c #FFAA4E",
".. c #FFAB4E",
"X. c #FFAA4F",
"o. c #FFAE4D",
"O. c #FFAF4D",
"+. c #FFAC4E",
"@. c #FFAD4E",
"#. c #FFAE4E",
"$. c #FFB348",
"%. c #FFB34B",
"&. c #FAB548",
"*. c #FFB54B",
"=. c #FFB64B",
"-. c #FFB74B",
";. c #FFB14C",
":. c #FFB04D",
">. c #FFB14D",
",. c #FFB24C",
"<. c #FFB34C",
"1. c #FFB44C",
"2. c #FFB54C",
"3. c #FFB84A",
"4. c #FFB94A",
"5. c #FFBA4A",
"6. c #FFBD49",
"7. c #FFBE49",
"8. c #FFBF49",
"9. c #FFBC4A",
"0. c #FFA051",
"q. c #FFA151",
"w. c #FFA350",
"e. c #FFA251",
"r. c #FFA450",
"t. c #FFA550",
"y. c #FFA650",
"u. c #FFC447",
"i. c #FFC547",
"p. c #FFC746",
"a. c #FFC647",
"s. c #FFC747",
"d. c #FFCB45",
"f. c #FFC846",
"g. c #FFC946",
"h. c #FFCA46",
"j. c #FFCB46",
"k. c #FFCC45",
"l. c #FFCD45",
"z. c #FFCF44",
"x. c #FFCE45",
"c. c #FFC048",
"v. c #FFC148",
"b. c #FFC049",
"n. c #FFC248",
"m. c #FFC348",
"M. c #FFD243",
"N. c #FFD343",
"B. c #FFD443",
"V. c #FFD543",
"C. c #FFD642",
"Z. c #FFD742",
"A. c #FFD643",
"S. c #FFD044",
"D. c #FFD144",
"F. c #FFD244",
/* pixels */
"                      F.N.F.l.l.l.d.j.s.                        ",
"                C.A.A.F.F.z.l.d.l.j.p.s.a.n.                    ",
"              C.A.F.F.z.z.z.j.j.p.s.s.u.n.n.7.7.                ",
"          C.C.C.F.F.z.z.j.j.j.s.s.u.u.u.n.7.7.7.3.3.            ",
"        C.A.F.N.z.z.z.z.j.s.s.a.u.u.n.n.7.7.7.3.3.=.=.          ",
"      C.A.A.N.F.z.z.j.j.j.s.s.a.u.u.        &.3.3.=.1.:.        ",
"      A.C.        z.j.j.s.u.a.              ( =.1.1.:.:.:.      ",
"                                            $.1.1.:.:.@.@.      ",
"                                          ( =.:.:.:.o.@.| |     ",
"  F.F.z.z.z.j.j.s.a.                    @ ^ $.:.@.@.@.| | ] y.  ",
"                                        @ o.$.@.@.| | | ] ] y.  ",
"                                          ^ @.@.@.| | ] y.e.e.  ",
"                                          9 @.| | ] y.e.e.e.W W ",
"                                    :.    + ) | ] y.y.e.e.W W W ",
"                                            9 ] y.e.e.e.W W W K ",
"                                              7 p e.e.W W Y K K ",
"                                                5 W W W Y K Y D ",
"                                                3 W W Y Y D D D ",
"                                                r Q Y Y D D D D ",
"                                              ; K K Y D D B B B ",
"                                        o , r K K K D B n B l   ",
"                                        , K Y K D D n B B l l   ",
"                                      , i Y Y D D D B l l f f   ",
"                                  . , K K K D D D B l l l l     ",
"                                    q Y n D n B B l l f f       ",
"                                    2 K D B B x l l f f f       ",
"                        X           - x D B l l l f f f         ",
"              4 8 7 i p y           * l B B l f f f z           ",
"            O u e.e.e.W W 0 = % * 1 l l l l f f f z             ",
"              ` W e.W K K n n n B B x l l f f f                 ",
"                W W W Y n D D D x l l l l z                     ",
"                      K D n B x l l l f                         "
};
