/* XPM */
static char *d62e4a936fc24306e058a5f7699afa6b[] = {
/* columns rows colors chars-per-pixel */
"16 16 84 1 ",
"  c None",
". c #EF9F3E",
"X c #E88D42",
"o c #F78E47",
"O c #F88F47",
"+ c #FA8B4E",
"@ c #F88D4D",
"# c #FB8C4D",
"$ c #ED9046",
"% c #F39946",
"& c #FB9847",
"* c #FD934E",
"= c #FB994C",
"- c #FE8F53",
"; c #FF8957",
": c #FF8A57",
"> c #FF8B57",
", c #FF8D56",
"< c #FF8C57",
"1 c #FF8E56",
"2 c #FF8F56",
"3 c #FD9750",
"4 c #FE9750",
"5 c #FF9155",
"6 c #FF9255",
"7 c #FF9355",
"8 c #FF9056",
"9 c #FF9156",
"0 c #FF9554",
"q c #FF9455",
"w c #FF9654",
"e c #FF9754",
"r c #FE9850",
"t c #FF9851",
"y c #FF9853",
"u c #FF9953",
"i c #FF9A53",
"p c #FF9C52",
"a c #FF9D52",
"s c #FF9E52",
"d c #F7A442",
"f c #FFA24F",
"g c #FFA74F",
"h c #FFA84C",
"j c #FFA84F",
"k c #FFA94F",
"l c #FFAB4E",
"z c #FFAE4D",
"x c #FFAF4D",
"c c #FFAC4E",
"v c #FFAD4E",
"b c #FCB249",
"n c #FFB14B",
"m c #FFB74B",
"M c #FFB04D",
"N c #FFB34C",
"B c #FFB44C",
"V c #FDB849",
"C c #FCBB48",
"Z c #FFBA4A",
"A c #FFBE49",
"S c #FFA050",
"D c #FFA051",
"F c #FFA151",
"G c #FFA250",
"H c #FFA450",
"J c #FFA550",
"K c #FFC447",
"L c #FFC746",
"P c #FFC647",
"I c #FFC747",
"U c #FFC946",
"Y c #FFCA46",
"T c #FFCB46",
"R c #FFCC45",
"E c #FFCD45",
"W c #FFCF44",
"Q c #FFCE45",
"! c #FFC148",
"~ c #FFD343",
"^ c #FFD543",
"/ c #FFD643",
"( c #FFD044",
") c #FFD144",
/* pixels */
"     ~)WUPK     ",
"   /)WWUIK!CC   ",
"  /~WWUPK!CVmB  ",
"      P    bBMv ",
"          .bMvk ",
"          dxvJJF",
"           hJJFs",
"           %FFsi",
"            =sie",
"            tte8",
"          O4ee22",
"         Ote822 ",
"         *488>> ",
"    X$   #82>>  ",
"   &ss4@#82>>   ",
"     iee82>     "
};
