/* XPM */
static char *c1ca51d39f394dcdfd8deb243ac26476[] = {
/* columns rows colors chars-per-pixel */
"64 64 47 1 ",
"  c None",
". c #E6763C",
"X c #EC773E",
"o c #E37B3B",
"O c #ED793E",
"+ c #F67E40",
"@ c #E38A36",
"# c #E7803A",
"$ c #EC843B",
"% c #E98A39",
"& c #F3853E",
"* c #F68B3E",
"= c #F9893F",
"- c #E29837",
"; c #EF9B38",
": c #F6933B",
"> c #FD923E",
", c #F59C3A",
"< c #FD9B3D",
"1 c #F7A039",
"2 c #FDA43C",
"3 c #FEA93F",
"4 c #FD8444",
"5 c #FE8C43",
"6 c #FF8648",
"7 c #FF8C4A",
"8 c #FD9342",
"9 c #FF9A45",
"0 c #FF944B",
"q c #FF9A4C",
"w c #FF8C56",
"e c #FF8858",
"r c #FF9354",
"t c #FF9B52",
"y c #FFA243",
"u c #FFAC45",
"i c #FFA64F",
"p c #FFAC4E",
"a c #FCB347",
"s c #FFB34C",
"d c #FFBC4A",
"f c #FFA251",
"g c #FFC547",
"h c #FFCC45",
"j c #FFC248",
"k c #FFD343",
"l c #FFD842",
/* pixels */
"                         lkhkkhkhhhhg                           ",
"                     klkkhkkhkhhhhhhhghgg                       ",
"                  kllkkkkkhhkhhhhhhhghgggggg                    ",
"                lklkkkkhhkhkhhhhhhhghgggjgjjjj                  ",
"              llklkkkkkkkhkhhhhghgggggggjgjjjjjd                ",
"            lllllkkkkkhkkhhhhhhhhhggggggjjjdddddd               ",
"           lllkkkkkhhkhhhhhhhhggggggggjjjjjjjddddds             ",
"          llkklkkkkkkhkhhhhhhhhggggjgjjjjjd ddddddds            ",
"        llllkkkkkkhkhhhhhhghhhggggggjjjdjdjdd ddddsds           ",
"       lllklkkhkhkkhkhhhhghgggggggjgjjdjdjdddd  ssdsss          ",
"      klllkkkkkkkhkhhhhhhhghgggggjjjjjjjjddddddd ssdsss         ",
"     lllkkkkkkkhkhhhhhhhhghgggjgjj           assd sdssss        ",
"     llllkkkhkhkhhhhhghggggggjg             -ssdss  sssss       ",
"     lk                hhggggj              uddssss sspppp      ",
"                           gg              ;adssssss pspppp     ",
"                                           ysssssssss psppp     ",
"                                           usssssspspp pppip    ",
"        kkhhhhh                           1usssspspppp  pppp    ",
"   kkkkhhhhhhhhhhggg                     ,2usssppsspppp pppif   ",
"kkkkhkh         ggggg                   12ysssspsppppppi pffp   ",
"kkk                                    122ussspsppppppip fifff  ",
"                                        ,2psspppppppfppi  pfff  ",
"                                         ,upsppppppppiiip ffff  ",
"                                          2ppppppppfiiiif fffff ",
"                                          <upppppppfpfffff fftf ",
"                                          ,yppppfpfpfpffff ftft ",
"                                    pss   @<ipfppfpfffffff ffttt",
"                                    ssp    <yppffpffpfffff tttft",
"                                           %9pfppfffffffft  tttt",
"                                            :9pfffffffftfft tttt",
"                                             *qfffffftftttt tttt",
"                                              %0ffffffttftt rttr",
"                                                *qffftftttt trtr",
"                                                $qffttttttt rtrr",
"                                                $qttttttttr trtr",
"                                                &qfttttttt  rrrr",
"                                                5qttttttrt rrrrr",
"                                               $0tttttrttt rrrrr",
"                                              $7ttttrtrrrr rwrr ",
"                                            O*7qtttttrrtrr rrrw ",
"                                         *=550trtttttrrrr rrwrw ",
"                                        #5500tttrtrtrtrrr wrrw  ",
"                                        58qttttttrrrrrrr  rrrw  ",
"                                       =50ttttrttrtrrrrr wwwww  ",
"                                      =50ttttrtrrrtrrrw  rwww   ",
"                                     550tttttrrtrrtwrrr wwwww   ",
"                                   &550ttttrtrtrrrwrrw  wwww    ",
"                                   550ttttrtrrrrrrwrrw rwwww    ",
"                                   *4ttttttttrrrrrwrw wwwww     ",
"                                   45trtrrrrrrrrrwrw wwwwwe     ",
"                                    40trrrrrwrrwwrw wwwwew      ",
"                                    47trrtrrrrrrrw wwewwe       ",
"                                    46rrrrrwrrwww wwweee        ",
"             %         $*=          +6rtrrrrrwww wwweee         ",
"             :>>:>8890qqq7          .4rrrrwrwr  wwwewe          ",
"             %>9qqitfftftqo         +6rrrwrww wwwwwee           ",
"             %8ifffffttftt7.    .O+46wtwrwr wwwwweee            ",
"           >>>9qffftfttfttt07654566wrwrwwwwwwwweeee             ",
"            89fffffftftttttttrtrrrrrrrrwrwwwwwewe               ",
"              ffftttttttttrttrrrrrrrwwrwwwwwweee                ",
"                tftftttttttrrtrrrrrrrrwwwwwwee                  ",
"                  ttttrtrrrrrrrrrrwwwwwwwwee                    ",
"                     tttrttrrrrrwwwrwwwww                       ",
"                         rrrrrwrwrwrw                           "
};
