/* XPM */
static char *_5e0df44fad94e87fa17652b9b61112f[] = {
/* columns rows colors chars-per-pixel */
"128 128 49 1 ",
"  c None",
". c #E4773C",
"X c #E37D3A",
"o c #EC7C3E",
"O c #F27E3F",
"+ c #F47D41",
"@ c #F97F41",
"# c #E68538",
"$ c #EC823C",
"% c #F2843E",
"& c #F58B3D",
"* c #FB8D3F",
"= c #E29534",
"- c #E89636",
"; c #EC9B37",
": c #EB9339",
"> c #F4923B",
", c #FE933E",
"< c #F39B39",
"1 c #FE9B3D",
"2 c #F6A139",
"3 c #FEA43C",
"4 c #FFA93D",
"5 c #F68240",
"6 c #FE8343",
"7 c #FF8C41",
"8 c #FF8648",
"9 c #FF8B4B",
"0 c #FF9343",
"q c #FF9B45",
"w c #FF944B",
"e c #FF9B4C",
"r c #FF8C56",
"t c #FF8858",
"y c #FF9355",
"u c #FF9B52",
"i c #FFA544",
"p c #FFAC43",
"a c #FFA64F",
"s c #FFAC4E",
"d c #FFB145",
"f c #FFB34C",
"g c #FFBC4A",
"h c #FFA251",
"j c #FFC547",
"k c #FFCC45",
"l c #FFC248",
"z c #FFD343",
"x c #FFD842",
/* pixels */
"                                                     zkzzkzkzkkkzkkkkkk                                                         ",
"                                               zzzzzzzkzzzkzzkzkkkzkkkkkkkkk                                                    ",
"                                           zzzzzzzzzzkzzzkkzkkkkkkkkkkkkkjkjkkjj                                                ",
"                                        zxzzzzzzzzzkzzzkkzkkkzkzkkkkkjkkjkjkjjkjjjj                                             ",
"                                     xxzxzzzzzzzzzzzzkzkkzkzkkkkkkkkkjkjjkjkkjjjjjjjlj                                          ",
"                                   xzzxxzzzzzzzzzzkkkzkzzkkkkkkkkkkkkkkjkjkjljjjjjjljjjll                                       ",
"                                 xxxxzzzzzzzzzzzkzzzzkkzzkzkkkkkkkkjjkkkjkkjjjjjjjjjlllllll                                     ",
"                               xxxzzxzzzxzzzzzzkkzkzkzkkkkkkkkkkkkkkkjjjjjjjjjjjljlljllllllgl                                   ",
"                             xxxxzxxzzzzzzzkzzzzzkzkzkkzkkkkkkkkkkkklkkkjjjjjjjljlljlllllllllgl                                 ",
"                           xxxxzxzzzzzzzzzzzkzkzkzzkkzkkkkkkkklkklklkklljjjjjjjjjlllllgllglgglgg                                ",
"                         xxxxzxzzxzzxzzzzkzzzkzkkzkkkkkkkkkkkkkklkkkkllkk   jjlljlllllllglgllglggg                              ",
"                        xxxxxxzxzzzzzzzzzzzkzzkkzkkzkkkkkkkkkklkkklkklkljjljj   llllllgllglglgggggg                             ",
"                      xxxzxzzxzzzzzzzzzzzzkzzkkzkkkkzkkkkkklkklklklkllkkjjljllll   lllllllglggggggggg                           ",
"                     xxxxxxxxzxzzzzzkzzkkzzkkzzkzkkkkkkkkkkklkkkklklkllljljjjlllgl    gggggggggggggggg                          ",
"                    xxzxzxxzzxzzzzzzzzzzkzkzzkkkkkkzkkkkkkkkkkkllklklklklkllllllllllg   glggggggggfffggf                        ",
"                   xxxxxzxzxzzzzzzzzkzzkzkzkkkzzkkkkkkkkkkklkllklklllklllljlllllllglgll   gggggggggggffgg                       ",
"                 xxxxzxzxzzzzzzzzzzzkzzzkkkzkkkkkkkkkkkjkjkjkjjjklllkljklllllllglllgllggg   ggggggggfgfggf                      ",
"                xxxxxxzxxzzzzzzzzzkzzkkkkzkkkkkkkkkkjkjkkkjkjjjjlkkllllllllllllllgglgglggg   ggffgffgfgffgf                     ",
"               xxxxxxzxzzzxzzzzkzkzkzzkzkzzkkkkkkkkkkjjkjkkjjjjjllllkllllllllllgglgggggggggg   ggffgfgfgfggf                    ",
"              xxzxxzxzzxzzzzzzzzzzkzkkzkkkkkkkkkkjjkkkkjkjjjjjjjklkllllllllgglgllglglggggfgggg  ggggffgffffff                   ",
"             xxxxxxzxzzzzzzzkzkzzkzzkzzkkzkkkkkkkkjkkkjkjjjjjjjjlklllllllllllglglgggggggggggfgg   fggffffffgff                  ",
"            zxxxxzzxzzzzzzzzzzzkzkkkkkkkkkkkkkkkkjjkjjkjjjjjjjljlllllllll             ggggfgggff   fffgffffsfff                 ",
"           xxxxxzzxzzzzzzkkzkzzkkzzkzkzkkkkkkkkkkkkjjkjjjjjjjjljlllll                     gggffggf  fgfggfffffff                ",
"          xxxxxzzxzzzzzzzzzzzzkzzkkzkkkkkkkkkkkkjjkjkjjjjjjjljjlkl                         ffgggfgf  fffsfffffsff               ",
"          xxzxzxzzzzzzzzzkzzkzkkkzkkzkkkkkkkkjkkjkkjjjkjjjjjljlj                         =dggfgffggf  fffffffffsfs              ",
"         xxxxzzzzxzzzzzzzzkzzkkzkkkkkkkkkkjkkkjjkjjjjjjjjljlll                           4fgfgfffffff   fffsfssfsfs             ",
"         xxzzxzzz                         kjjkjjjjjjjjjjjjjlj                           2dgfgffffgffff  ffffsfssfsf             ",
"          zx                                    jjjkjjjjljlj                           ;4fgfffggfffffff  fssfssffsss            ",
"                                                    jjjjjll                            34gffgfffffffsfff  ffsffssssss           ",
"                                                        ll                            =4dfgffffffffffffss  sfssfsssss           ",
"                                                                                      i4dffffgffffffffsff   ssssssfsss          ",
"                                                                                      2ifggfffffffffsfsffs   fsssssssss         ",
"                                                                                     =3pfffffffffsfsffssssf  ssssssssss         ",
"                                                                                     23pfffffffffffsfssffsss  ssssssshhs        ",
"                                                                                     33dfgfffffsfsffsffsfsss   ssssssssh        ",
"            zzzkkzzkkkkkkzkkkjkkjk                                                  344fffffffffsfsffsfssssss  sssshhsssh       ",
"       zzzzkkzkzzkkkzkkkkkkkkkkjkkkjkj                                             233iffffffffsffsfssssssssss  hssshsshs       ",
"    zzzzzkzzzkkkkkkkkkkkkkkkkjkjkjkjjjjjj                                         2333pffffffssfssfssffsssssss   sshshhshh      ",
" zzzzkzkkzkzkzzkkzk         kkjkjjjjjjjjjj                                      ;33333sfffsfsffssffsfsssssssshs  shshshhhh      ",
"zzzzzzzzkzz                       jjjjjjjl                                    -333333pfffffsffsffssssssssssssss   shshhshss     ",
"zzzzzzz                               jjl                                    2333333iffsfsffssfssfsssssssssshssh  hsshhhhss     ",
"kzz                                                                           -33333pffffssfsfssssssssssshhssshs   hhhsshhhh    ",
"                                                                                <33ifffsfffsffsfsssssssssssshshss  shshhhhhh    ",
"                                                                                 <33sfsfsfsfssssssssssssaashsashh   hhhshhhh    ",
"                                                                                  13iffsfssssssssssssssaasashshsas  hhhhhhhhh   ",
"                                                                                   11psfsffssssssssssshssaasshshhh  hhhhhhhuh   ",
"                                                                                   11ifsssfssssssssshhssaaaaaahhsh   hhhhhhhh   ",
"                                                                                   :33ssfsssssssssssssshaaaaahhshhh  hhhhuhuhh  ",
"                                                                                    11issssssssshshsshssshhsshshhhh  hhuhhuhhh  ",
"                                                                                    11issssssssasssssshhhshhhhhhhhh   hhuhhhuu  ",
"                                                                                    <11ssssssassssshhshsshhshhhhhhhh  hhhuhuuh  ",
"                                                                          fff        11issssssshshshshhsshhhshhhhhhh  uhhhuhhuu ",
"                                                                         ssfsf       11qsssssaashsshshhhhshhhhhhhhhu  huhuuhuhu ",
"                                                                        fffffs       >11asassasashshhshshhhhhhhhhhhh   huhuuuuu ",
"                                                                        fsfssf        11qsssaasashhsshshshhhhhhhhhhu   uuuhuhuu ",
"                                                                        sfsfss        >11asasaaahshhhhhhhhhhhhhhhhhhh  uuhuuuuu ",
"                                                                         fsfs          11qhssshsshhshhhhhhhhhhuhhuhhu  huuuuuuuu",
"                                                                                       >,1aahhshshhshhhshhhuhhhhhhuuh  uuhuuuuuu",
"                                                                                        ,1qsaashhshhhhhhhhhhhhuhuhuhu  uuuuuuuuu",
"                                                                                         ,,qaahshhhhhhhhhhhhuhhuuuuhu  uuhuuuuyu",
"                                                                                          ,,ihhhhhhhhhhhhhuuuhuhhhuuu   yuuuuuuy",
"                                                                                           ,0qhhhhhhhhhhhuhhhhuuuuhuu   uuuyyuyu",
"                                                                                            &,qeahhhhhhhhhuhuhuhuhuuu   uuuuuyuy",
"                                                                                              70whhhhuhhhuhuhuuhuuuuu   uyuyuuyu",
"                                                                                               #*7ehhhuhuhuuhuuuuuuuu   yuuuyyuy",
"                                                                                                 00huhhuhuhuhuuuhuuuu   uyyuuyuy",
"                                                                                                 *0hhhhuuhuhuuuhuuyuu   uuyyuyyy",
"                                                                                                 *0uuuhuhuuuuuuuuuuuu   yuyuuyuy",
"                                                                                                 70eauhuuuhuuuuyuyyuu  uyuyyyyyy",
"                                                                                                 70auuhuhuuuuuuuuuuuy  yyyuuyuyy",
"                                                                                                 7wuhuuuuuhuuuuuuuyuu  yuyyyyyyy",
"                                                                                                $7euuuhuuuuuyuuyyuuyy  uuyyyyyyy",
"                                                                                                &7uuuuuhuuuuuuuuyuuyu  yyyyyyyy ",
"                                                                                                70uuuuuuuuuuyuyuuuyu   yyyyyyyy ",
"                                                                                               57wuuuuuuuuyuuuyuyuyy   yyyyuyyy ",
"                                                                                              570heuuuuuuyuuyuuuyyuy  yyyyyyyyy ",
"                                                                                             $77uuuuuuuuuyuuyuyyuuyy  yyyyyyryy ",
"                                                                                            577wuuuuuuuyuuyuuyuyyyyy  yyyyryyr  ",
"                                                                                          &777wuuuuuuuyuyuuuyyyyyuy   yyyyryyr  ",
"                                                                                       $&7777wuuuuuuyuuuuyyyyuyuyyy  yyyyryyry  ",
"                                                                                  $*7*777777euuuuuuyyuuuuuuyyyyyyyy  yrryyyyry  ",
"                                                                                  **77*777wuuuuuyuuuuuyyyyyyyuyyyy   yyyryryr   ",
"                                                                                 %*77770wuuuuuuuuuuuyuyuyuuyyyyuyy  yyyyyyrrr   ",
"                                                                                 7777weuuuuuuuuyyuyuuyuyyyyyyuyyyy  ryrrrrryr   ",
"                                                                                *777whuuuuuuuuuuuuyuuyyyyyyyyyyyy   ryryyrrr    ",
"                                                                               %777wuuuuuuuuuuyyuyuyyuyuyuyyyyyry  yyyyrryry    ",
"                                                                              o*7*7euuuuuuuuyuuuuuyyyyyuyyyyyyyy   yrryyrrrr    ",
"                                                                             X7777wuhuuuyuuyuuyuyyyuuyyyyyyyyryr  rrrrrryrr     ",
"                                                                             77*7wuuuuuuuyuuuyuuyuyyuyyyyyyyyyy   ryryrrrrr     ",
"                                                                            7777weuuuuuyuuuyuyyyyyyuyyyyyryryry  ryrrrrrrr      ",
"                                                                          X7777wuuuuuuuuuuyuyuyuyyyyyyyyyyyyyy   ryrrrrryr      ",
"                                                                         %7777wuuuyuuyuyyyuyyuyyuyyyyyyyyyryyr  ryrrryrrrr      ",
"                                                                       #77777yuuuuyuuuuuuyuyyuuyyuuyyyyyyyrry  ryrrrrrrrt       ",
"                                                                     %777770euuyuuuuuyyuyuyuyyyyyyrryryryryy   yrrrrrrrtr       ",
"                                                                     577777uuuuuuuuuuyuuuuyyyyyyyyyyyyyyryry  rrrrrrrrrr        ",
"                                                                     X7777wuuuuuuyuyyuyyyyyyuyyyyyyyyryryyr  rryrrrrrrt         ",
"                                                                      *777uuuuuuuyuuuyyuyyyyyyyyyryryyyryr   rrrrrrrrrt         ",
"                                                                      %779uuuyuuuuyyyuyyyuyyyyyyyyyryryrr   rrrrrrtrtr          ",
"                                                                      X767uuuyuyyuyuyuuyuyyyyyyyyryyyrrry  rrrrrrrrttr          ",
"                                                                       679uyuuyuuyyuyyyyyyyyyryrryyrryry  rrrrrrtrtrr           ",
"                                                                       677yuyuyuyyuyyyuyyyyyyyyyryryrry  rrrrrrrrtrt            ",
"                                                                       %669uuuuyyuyyyyyyyyyyryryyyrryr  rrrrrrttrtt             ",
"                                                                       .*67uuyyuuyyuyyyyyyyrryyrryryr  rrrrrrttrtrt             ",
"                                                                        668yyuyyyyyyyyyyryyyyyryrryr  rrrrrrtrrttt              ",
"                                                                        666wyuuyyyyyyyyyyyyryryryry  rrrrtrrrtttt               ",
"                                                  &X                    +669yyyyyyyyyyyyryryyrryrr  rrrrtrrtttrt                ",
"                                                &*7$                    +668yyuyyyyyyyryyrryryrr   rrrtrrrtttrt                 ",
"                          ,>>#             #%***77,$                     668yyyyyyyyyyryyryryrr   rrrrrrtrtttt                  ",
"                          >,,,,,,,,*>&,7**00w0eee077                     66@yyyyyyyyryyryryyrr  rrrrtrrtttttt                   ",
"                          #,,,,,,0,*0000eeeeuhhuhuw7                     668yyyyryyryrryrrrr   rrrtrtrrtrttt                    ",
"                           ,,0,qq0qeeahhhhhhhuuhuuhw$                    @@8yyyryyyyryyrry   rrtrtrrrtttttt                     ",
"                           ,,00ihhauahhhuhhuhuhuhuuu7                    @69yyyyyryryryry   rrrrrrrttrrttt                      ",
"                           &,,ihhhhhhhhhuuhuhuhhauuu0o              .+@@6@9yyyyrryryryr   rrrrrrtrrttrttt                       ",
"                           *,0hhhhhhhhhhhhhhuhuuuuuuw765%oooooO+6@6666@@6ryyyryyyryrr   rryrrrtrtrttrttt                        ",
"                     >,,,,,,00hhhhhhhhhuhhuuuuuhuuuuuyw7766666866666668ryyyyyrryyy    rrrrrrtrrrrtrttt                          ",
"                      ,,,0,,0ahhhhuhhuuhuuuhhuuuuuuuuuuyyww997878899yyyyyryryyyr   rrrryrrtrrrttttttt                           ",
"                        ,,*0eauahhhhhhuhhuhuuuuuuuuuuuuuyuuyyuyyyyyyyyyryyryr   rrrrrrrrrrrtrttrrttt                            ",
"                         ,qaahhhuhuhhuhuhuuhuuuuuuuuyuuyuyuyyuyyuyyyyyyyy   yryryryrrrrrrrrtrttrtt                              ",
"                           hhhuhhhuhuuuhuhuuhuuuyuuyyuuuyuyyyyyyyyyyyyyyryryryryyrrrrrrtttrrtttt                                ",
"                             uhhuhhhuhhuuuuuuuuuuuuuuuyyuyyuuyyyyyyyyyryryyryrrrrrrrrrrtrrtrttt                                 ",
"                               hhuhhuuuuuuuuuuuuuuuyuyuyyuyyuyyyyyyyyyyyyrryryrrrrrrrtrrrttrt                                   ",
"                                 huuuhhuuuuuuuuyuyuuyuyyyuyyyyyyyyryryrryrryrrrrrrrrrrtrttr                                     ",
"                                   uuhuuuuuuuyuuuuyyuyuyyyyyyyyyyrryyrryrrrrrrrrrrtrtrtrt                                       ",
"                                     uuuuuyuuuuyyuyuyuyyyyyyyyyyyyyyryyryryrrrrrtrrrrt                                          ",
"                                        uuuuuyuuuuuyyyyyyyyyyyyyrryrryrrryrryrrrrrt                                             ",
"                                           uuuuyyyyyuyuyyyyyyyryyyryyrryrrrrrttr                                                ",
"                                               yyuuyyyyyyyyyyryrryyryryrrrrr                                                    ",
"                                                     yyyyyyyryyryryrrr                                                          "
};
